<svg id="Layer_1" data-name="Layer 1" xmlns="http://www.w3.org/2000/svg" xmlns:xlink="http://www.w3.org/1999/xlink" viewBox="0 0 300 160"><defs><style>.cls-1{fill:#fff;}.cls-2{fill:#fff;}.cls-3{fill:#fff;}.cls-4{fill:#fff;}.cls-5{fill:#fff;}.cls-6{fill:#fff;}.cls-7{fill:#fff;}</style><linearGradient id="linear-gradient" x1="97.41" y1="135.03" x2="294.56" y2="135.03" gradientUnits="userSpaceOnUse"><stop offset="0" stop-color="#fff"/><stop offset="1" stop-color="#fff"/></linearGradient><linearGradient id="linear-gradient-2" x1="97.41" y1="71.43" x2="294.56" y2="71.43" xlink:href="#linear-gradient"/><linearGradient id="linear-gradient-3" x1="5.28" y1="30.39" x2="67.64" y2="30.39" gradientUnits="userSpaceOnUse"><stop offset="0" stop-color="#fff"/><stop offset="1" stop-color="#fff"/></linearGradient><linearGradient id="linear-gradient-4" x1="220.73" y1="41.89" x2="293.82" y2="41.89" xlink:href="#linear-gradient"/><linearGradient id="linear-gradient-5" x1="190.2" y1="41.89" x2="225.38" y2="41.89" xlink:href="#linear-gradient-3"/></defs><title>logo</title><path class="cls-1" d="M93.9,156H68.13a279.9,279.9,0,0,0-16.54-22.89q-9.11-11.36-19.07-22.05H30.83v32a8.71,8.71,0,0,0,.81,3.82,6,6,0,0,0,3,2.72,25.22,25.22,0,0,0,3.85,1.1,25.47,25.47,0,0,0,4.7.71V156H5v-4.6L9.34,151a14.13,14.13,0,0,0,4-.77,5.48,5.48,0,0,0,2.82-2.5,8.42,8.42,0,0,0,.87-4V77.46a9.17,9.17,0,0,0-.74-3.82,5.78,5.78,0,0,0-3-2.66A24.08,24.08,0,0,0,9.21,69.5,22.29,22.29,0,0,0,5,68.72v-4.6H43.14v4.6a31.39,31.39,0,0,0-4.54.58,31.56,31.56,0,0,0-4,1,4.75,4.75,0,0,0-3,2.59,9.91,9.91,0,0,0-.78,4v31.73h1.3q5.82-4.92,11.46-10.26T53.82,87.63A103.22,103.22,0,0,0,61.3,78.2,11.69,11.69,0,0,0,63.66,72a1.82,1.82,0,0,0-1.2-1.59,12.82,12.82,0,0,0-2.75-1,24.06,24.06,0,0,0-3.23-.49l-2.34-.16v-4.6H88.59v4.6l-.84.06c-.43,0-.93.09-1.49.13a14.09,14.09,0,0,0-1.81.26l-2.33.46a22.94,22.94,0,0,0-4.69,1.65,12.41,12.41,0,0,0-4,2.81q-6.66,7.57-13.91,15.68T45.19,104.54Q55,115.67,61.5,123.7t13.71,17.15a31.29,31.29,0,0,0,5.54,5.6,35,35,0,0,0,4.77,3.14,15.49,15.49,0,0,0,4.19,1.29,29.4,29.4,0,0,0,4.19.52Z"/><path class="cls-1" d="M144.24,125.31H125.92V123.1a18.71,18.71,0,0,0,4-.62c1.07-.31,1.6-.69,1.6-1.15a4.82,4.82,0,0,0-.06-.68,2.91,2.91,0,0,0-.19-.72l-3.65-9.87H112.18c-.58,1.45-1.06,2.71-1.42,3.79s-.69,2.07-1,3-.45,1.61-.56,2.17a8.17,8.17,0,0,0-.15,1.37q0,1.25,2,1.92a15.58,15.58,0,0,0,4.41.81v2.21H98.84V123.1a12.61,12.61,0,0,0,2-.36,6.39,6.39,0,0,0,2-.79,7.94,7.94,0,0,0,1.93-1.75,12.1,12.1,0,0,0,1.34-2.53q3.31-8.3,7.32-18.63t7.15-18.42h2.48l14.69,38a7.59,7.59,0,0,0,1.05,2,7.84,7.84,0,0,0,1.65,1.46,7.14,7.14,0,0,0,1.86.73,10,10,0,0,0,1.93.32Zm-17.73-18-6.67-17.1-6.58,17.1Z"/><path class="cls-1" d="M166,125.31H146.19V123.1l2.42-.19a8.64,8.64,0,0,0,2.23-.37,3,3,0,0,0,1.49-1.1,3.48,3.48,0,0,0,.47-1.94V87.58a4.25,4.25,0,0,0-.34-1.82,2.78,2.78,0,0,0-1.62-1.23,15.29,15.29,0,0,0-2.34-.69,15,15,0,0,0-2.31-.39V81.24H166v2.21a20.92,20.92,0,0,0-2.3.23,16.08,16.08,0,0,0-2.33.51,2.47,2.47,0,0,0-1.58,1.21,4.24,4.24,0,0,0-.41,1.87v31.89a3.57,3.57,0,0,0,.45,1.81,3.09,3.09,0,0,0,1.54,1.26,14.75,14.75,0,0,0,2.13.55,16.1,16.1,0,0,0,2.5.32Z"/><path class="cls-1" d="M199.93,105.09a10.27,10.27,0,0,1,2.06,3.4,12.53,12.53,0,0,1,.67,4.3,12.28,12.28,0,0,1-4.31,9.63,15.7,15.7,0,0,1-10.72,3.79,19.88,19.88,0,0,1-5.9-.92,22.86,22.86,0,0,1-5.09-2.22l-1.34,2.27h-2.48l-.43-15.09h2.51a32.83,32.83,0,0,0,1.82,5,17.62,17.62,0,0,0,2.75,4.21,12.46,12.46,0,0,0,3.77,2.92,11.07,11.07,0,0,0,5,1.09A11.47,11.47,0,0,0,192,123a6.7,6.7,0,0,0,2.59-1.59,6.47,6.47,0,0,0,1.47-2.41,9.72,9.72,0,0,0,.49-3.19,8.84,8.84,0,0,0-1.5-4.93,9.11,9.11,0,0,0-4.44-3.46q-2-.81-4.62-1.78t-4.51-1.84a14.69,14.69,0,0,1-5.79-4.39,11.46,11.46,0,0,1-2.06-7.1,10.85,10.85,0,0,1,1-4.68,12.4,12.4,0,0,1,2.92-3.89,13.28,13.28,0,0,1,4.26-2.52,14.28,14.28,0,0,1,5.12-.92,15,15,0,0,1,5.45.93,26.39,26.39,0,0,1,4.39,2.17l1.28-2.11h2.48l.25,14.63h-2.52q-.67-2.52-1.53-4.81a17.12,17.12,0,0,0-2.22-4.17A10.29,10.29,0,0,0,191.27,84,9.66,9.66,0,0,0,186.55,83a7.16,7.16,0,0,0-5,1.9,6,6,0,0,0-2.08,4.62,8,8,0,0,0,1.33,4.74,9.79,9.79,0,0,0,3.88,3.09q2.26,1.08,4.46,1.88c1.46.52,2.87,1.09,4.24,1.69a32.57,32.57,0,0,1,3.58,1.83A13.43,13.43,0,0,1,199.93,105.09Z"/><path class="cls-1" d="M246.19,112.33l-.84,13H208.77V123.1c.62,0,1.45-.13,2.48-.26a8.94,8.94,0,0,0,2-.42,2.78,2.78,0,0,0,1.38-1.21,4.09,4.09,0,0,0,.39-1.9V87.64a4.54,4.54,0,0,0-.34-1.82,2.63,2.63,0,0,0-1.43-1.29,11.13,11.13,0,0,0-2.25-.71,16.07,16.07,0,0,0-2.25-.37V81.24h34.1V91.86h-2.33a14.39,14.39,0,0,0-2.69-5q-2.06-2.66-3.93-2.91c-.64-.08-1.41-.14-2.29-.18s-1.91-.06-3-.06h-6.92v17.51h5a9.94,9.94,0,0,0,3.49-.45,4.78,4.78,0,0,0,1.94-1.51,8.13,8.13,0,0,0,1.16-2.4,14.28,14.28,0,0,0,.64-2.84h2.33v17.26h-2.33a13.39,13.39,0,0,0-.67-3.15,8.12,8.12,0,0,0-1.13-2.41,4.44,4.44,0,0,0-2.19-1.58,11.45,11.45,0,0,0-3.24-.37h-5V117a13.52,13.52,0,0,0,.28,3.13,2.9,2.9,0,0,0,1.08,1.74,4.69,4.69,0,0,0,2.21.76,35.85,35.85,0,0,0,4,.17h2.7a28,28,0,0,0,2.83-.12,18.85,18.85,0,0,0,2.44-.45,3.73,3.73,0,0,0,1.78-.89,19.62,19.62,0,0,0,3-4.52,30,30,0,0,0,2-4.45Z"/><path class="cls-1" d="M294.56,125.31H282.7q-3.94-6.18-7.12-10.69t-6.91-9.28h-4.51v14a4.9,4.9,0,0,0,.34,1.91,2.42,2.42,0,0,0,1.46,1.26,9.07,9.07,0,0,0,2,.4,22.48,22.48,0,0,0,2.36.22v2.21H251.65V123.1c.49,0,1.21-.11,2.15-.22a7.22,7.22,0,0,0,2-.4,2.67,2.67,0,0,0,1.35-1.18,4.16,4.16,0,0,0,.42-2V87.45a5.68,5.68,0,0,0-.31-1.92,2.34,2.34,0,0,0-1.46-1.28,15.44,15.44,0,0,0-2-.51,20.38,20.38,0,0,0-2.11-.29V81.24H272a22.5,22.5,0,0,1,5.24.58,14.16,14.16,0,0,1,4.44,1.84,9.31,9.31,0,0,1,3.08,3.25,9.62,9.62,0,0,1,1.15,4.83,12.05,12.05,0,0,1-.78,4.5,9.28,9.28,0,0,1-2.3,3.39,13.6,13.6,0,0,1-3.35,2.31,24.9,24.9,0,0,1-4.32,1.66q3.27,4.32,5.42,7.27c1.44,2,3.2,4.36,5.3,7.17a15,15,0,0,0,2.46,2.75,13.26,13.26,0,0,0,2.19,1.44,7.42,7.42,0,0,0,2,.62,14.27,14.27,0,0,0,2,.25ZM278.23,92.47a8,8,0,0,0-8.79-8.68h-5.28v18.88h4.07a9.62,9.62,0,0,0,10-10.2Z"/><path class="cls-1" d="M105.18,150.57a2.46,2.46,0,0,1,.53.87,3.3,3.3,0,0,1,.17,1.1,3.12,3.12,0,0,1-1.1,2.45,4,4,0,0,1-2.74,1,5.2,5.2,0,0,1-1.5-.23,6,6,0,0,1-1.3-.57l-.34.58h-.64l-.11-3.85h.64a9,9,0,0,0,.47,1.28,4.34,4.34,0,0,0,.7,1.08,3,3,0,0,0,1,.74,2.77,2.77,0,0,0,1.28.28,3,3,0,0,0,1-.14,1.69,1.69,0,0,0,.66-.41,1.75,1.75,0,0,0,.38-.61,2.57,2.57,0,0,0,.12-.82,2.24,2.24,0,0,0-.38-1.25,2.35,2.35,0,0,0-1.14-.89c-.34-.14-.73-.29-1.18-.45l-1.15-.47A3.71,3.71,0,0,1,99,149.1a3.14,3.14,0,0,1-.27-3,3.06,3.06,0,0,1,.74-1,3.4,3.4,0,0,1,1.09-.65,3.62,3.62,0,0,1,1.31-.23,4,4,0,0,1,1.39.23,6.89,6.89,0,0,1,1.12.56l.33-.54h.63l.07,3.73h-.65a11.58,11.58,0,0,0-.39-1.22,3.92,3.92,0,0,0-.57-1.07,2.53,2.53,0,0,0-.83-.73,2.47,2.47,0,0,0-1.2-.27,1.86,1.86,0,0,0-1.29.48,1.55,1.55,0,0,0-.53,1.18,2,2,0,0,0,.34,1.21,2.57,2.57,0,0,0,1,.79q.59.27,1.14.48c.37.13.73.28,1.08.43a8,8,0,0,1,.92.47A3.29,3.29,0,0,1,105.18,150.57Z"/><path class="cls-1" d="M112.45,155.73h-5.06v-.56l.61,0a1.89,1.89,0,0,0,.57-.1.73.73,0,0,0,.39-.28,1,1,0,0,0,.11-.49V146.1a1.1,1.1,0,0,0-.08-.47.72.72,0,0,0-.42-.31,4.74,4.74,0,0,0-1.18-.28v-.56h5.06V145l-.58.06a5.57,5.57,0,0,0-.6.13.63.63,0,0,0-.4.31,1.09,1.09,0,0,0-.11.48v8.14a.88.88,0,0,0,.12.46.76.76,0,0,0,.39.33,4.31,4.31,0,0,0,.54.13,4.85,4.85,0,0,0,.64.09Z"/><path class="cls-1" d="M124.88,150.17a5.38,5.38,0,0,1-.54,2.49,5.11,5.11,0,0,1-1.4,1.73,6.08,6.08,0,0,1-2,1,7.64,7.64,0,0,1-2.24.33h-4.67v-.56a5.15,5.15,0,0,0,.6,0,1.8,1.8,0,0,0,.49-.1.69.69,0,0,0,.35-.3,1.07,1.07,0,0,0,.1-.49v-8.12a1.21,1.21,0,0,0-.09-.48.67.67,0,0,0-.36-.34,2.21,2.21,0,0,0-.53-.18l-.49-.07v-.56h4.91a6.48,6.48,0,0,1,2,.31,5.7,5.7,0,0,1,1.71.85,4.91,4.91,0,0,1,1.56,1.84A6.12,6.12,0,0,1,124.88,150.17Zm-1.94,0a6.54,6.54,0,0,0-.3-2,4.87,4.87,0,0,0-.88-1.6,4,4,0,0,0-1.35-1,4.1,4.1,0,0,0-1.77-.37h-.73l-.61,0v8.65a1.1,1.1,0,0,0,.42,1,2.33,2.33,0,0,0,1.29.28,4,4,0,0,0,1.76-.36,3,3,0,0,0,1.22-1,4.29,4.29,0,0,0,.72-1.54A8.08,8.08,0,0,0,122.94,150.17Z"/><path class="cls-1" d="M131.43,155.73h-5.07v-.56l.62,0a1.89,1.89,0,0,0,.57-.1.71.71,0,0,0,.38-.28.87.87,0,0,0,.12-.49V146.1a1.09,1.09,0,0,0-.09-.47.7.7,0,0,0-.41-.31,5.65,5.65,0,0,0-.6-.18,4.83,4.83,0,0,0-.59-.1v-.56h5.07V145l-.59.06a5.34,5.34,0,0,0-.59.13.68.68,0,0,0-.41.31,1.09,1.09,0,0,0-.1.48v8.14a1,1,0,0,0,.11.46.79.79,0,0,0,.4.33,4.31,4.31,0,0,0,.54.13,4.63,4.63,0,0,0,.64.09Z"/><path class="cls-1" d="M144.63,145a4.06,4.06,0,0,0-.69.13,2.25,2.25,0,0,0-.65.25,1.12,1.12,0,0,0-.39.76,9.06,9.06,0,0,0-.1,1.42v8.24h-.69l-6.82-9.2v5.8a7,7,0,0,0,.13,1.5,1.32,1.32,0,0,0,.37.74,1.89,1.89,0,0,0,.76.33,5.4,5.4,0,0,0,.75.16v.56h-4.61v-.56a3.89,3.89,0,0,0,.72-.16,1.66,1.66,0,0,0,.63-.25,1.11,1.11,0,0,0,.38-.67,7.9,7.9,0,0,0,.11-1.56V147a2.29,2.29,0,0,0-.13-.73,1.49,1.49,0,0,0-.34-.57,2.39,2.39,0,0,0-.78-.44,2.54,2.54,0,0,0-.78-.21v-.56h3.21l6.32,8.58v-5.35a7.19,7.19,0,0,0-.12-1.51,1.23,1.23,0,0,0-.37-.71,2.92,2.92,0,0,0-.72-.29,4.39,4.39,0,0,0-.77-.16v-.56h4.58Z"/><path class="cls-1" d="M156.67,151.24l-.51.08a1.83,1.83,0,0,0-.52.14.75.75,0,0,0-.34.34,1.19,1.19,0,0,0-.1.51v.88c0,.63,0,1.06,0,1.28s0,.4,0,.55a12.48,12.48,0,0,1-2.1.73,8.64,8.64,0,0,1-2,.25,5.46,5.46,0,0,1-2.08-.4,5.2,5.2,0,0,1-1.75-1.16,5.42,5.42,0,0,1-1.19-1.83,6.2,6.2,0,0,1-.45-2.41,6.37,6.37,0,0,1,.43-2.38,5.53,5.53,0,0,1,1.2-1.91,5.37,5.37,0,0,1,1.79-1.24,5.77,5.77,0,0,1,2.24-.44,5.43,5.43,0,0,1,1.65.23,6.28,6.28,0,0,1,1.25.56l.32-.54h.64l.07,3.93h-.65a11.89,11.89,0,0,0-.41-1.28,4.8,4.8,0,0,0-.64-1.13,2.78,2.78,0,0,0-2.29-1.09,3.23,3.23,0,0,0-1.51.34,3.42,3.42,0,0,0-1.16,1,5.08,5.08,0,0,0-.75,1.64,8.79,8.79,0,0,0-.26,2.2,7.76,7.76,0,0,0,.26,2,5,5,0,0,0,.75,1.64,3.63,3.63,0,0,0,1.23,1.11,3.42,3.42,0,0,0,1.68.4,3.68,3.68,0,0,0,1.27-.21,2.19,2.19,0,0,0,.81-.45,4.65,4.65,0,0,0,.07-.83c0-.28,0-.52,0-.72v-.62a1.78,1.78,0,0,0-.1-.59.61.61,0,0,0-.37-.37,2.6,2.6,0,0,0-.71-.18l-.7-.08v-.58h4.93Z"/><path class="cls-1" d="M172.45,155.73h-4.68v-.56a5.08,5.08,0,0,0,1-.16c.27-.08.41-.18.41-.29a1.41,1.41,0,0,0,0-.18.78.78,0,0,0-.05-.18l-.93-2.52h-4q-.22.56-.36,1l-.25.77a3.69,3.69,0,0,0-.14.55,1.7,1.7,0,0,0,0,.35c0,.21.16.38.5.49a3.84,3.84,0,0,0,1.12.21v.56h-4.23v-.56a3.25,3.25,0,0,0,.51-.09,1.51,1.51,0,0,0,.51-.21,2.14,2.14,0,0,0,.49-.44,3,3,0,0,0,.34-.65q.85-2.11,1.87-4.76c.68-1.76,1.29-3.32,1.83-4.7H167l3.75,9.71a2.12,2.12,0,0,0,.27.5,2,2,0,0,0,.42.37,1.86,1.86,0,0,0,.48.18,2.88,2.88,0,0,0,.49.09Zm-4.53-4.6-1.7-4.36-1.68,4.36Z"/><path class="cls-1" d="M184.64,145a4,4,0,0,0-.68.13,2.22,2.22,0,0,0-.66.25,1.08,1.08,0,0,0-.38.76,8,8,0,0,0-.1,1.42v8.24h-.69l-6.82-9.2v5.8a7.15,7.15,0,0,0,.12,1.5,1.32,1.32,0,0,0,.38.74,1.76,1.76,0,0,0,.75.33,5.4,5.4,0,0,0,.75.16v.56H172.7v-.56a3.89,3.89,0,0,0,.72-.16,1.82,1.82,0,0,0,.64-.25,1.16,1.16,0,0,0,.38-.67,8.11,8.11,0,0,0,.1-1.56V147a2,2,0,0,0-.13-.73,1.37,1.37,0,0,0-.34-.57,2.44,2.44,0,0,0-.77-.44,2.66,2.66,0,0,0-.79-.21v-.56h3.21l6.33,8.58v-5.35a6.46,6.46,0,0,0-.13-1.51,1.23,1.23,0,0,0-.36-.71,2.86,2.86,0,0,0-.73-.29,4.32,4.32,0,0,0-.76-.16v-.56h4.57Z"/><path class="cls-1" d="M196.57,150.17a5.38,5.38,0,0,1-.54,2.49,5.11,5.11,0,0,1-1.4,1.73,6.08,6.08,0,0,1-2,1,7.64,7.64,0,0,1-2.24.33h-4.67v-.56a5.15,5.15,0,0,0,.6,0,1.8,1.8,0,0,0,.49-.1.63.63,0,0,0,.34-.3,1,1,0,0,0,.11-.49v-8.12a1.21,1.21,0,0,0-.09-.48.67.67,0,0,0-.36-.34,2.21,2.21,0,0,0-.53-.18l-.49-.07v-.56h4.91a6.48,6.48,0,0,1,2,.31,5.7,5.7,0,0,1,1.71.85,4.91,4.91,0,0,1,1.56,1.84A6.12,6.12,0,0,1,196.57,150.17Zm-1.94,0a6.54,6.54,0,0,0-.3-2,4.87,4.87,0,0,0-.88-1.6,4,4,0,0,0-1.35-1,4.1,4.1,0,0,0-1.77-.37h-.73l-.61,0v8.65a1.1,1.1,0,0,0,.42,1,2.33,2.33,0,0,0,1.29.28,4,4,0,0,0,1.76-.36,3,3,0,0,0,1.22-1,4.29,4.29,0,0,0,.72-1.54A8.08,8.08,0,0,0,194.63,150.17Z"/><path class="cls-1" d="M213.32,155.73h-3c-.67-1-1.28-2-1.82-2.73s-1.13-1.55-1.76-2.37h-1.15v3.57a1.44,1.44,0,0,0,.08.49.65.65,0,0,0,.38.32,2.12,2.12,0,0,0,.5.1l.6.06v.56h-4.76v-.56l.55-.06a1.87,1.87,0,0,0,.51-.1.72.72,0,0,0,.34-.3,1.07,1.07,0,0,0,.11-.51v-8.13a1.54,1.54,0,0,0-.08-.5.57.57,0,0,0-.37-.32,3.56,3.56,0,0,0-.52-.13,4.72,4.72,0,0,0-.54-.08v-.56h5.19a5.67,5.67,0,0,1,1.34.15,3.39,3.39,0,0,1,1.14.47,2.3,2.3,0,0,1,.78.83,2.39,2.39,0,0,1,.3,1.23,3.15,3.15,0,0,1-.2,1.15,2.32,2.32,0,0,1-.59.86,3.3,3.3,0,0,1-.85.59,6.58,6.58,0,0,1-1.11.43c.56.73,1,1.35,1.39,1.85s.82,1.12,1.35,1.84a3.79,3.79,0,0,0,.63.7,3.6,3.6,0,0,0,.56.37,2.06,2.06,0,0,0,.51.15,4.45,4.45,0,0,0,.52.07Zm-4.17-8.38a2.06,2.06,0,0,0-2.25-2.22h-1.34V150h1a2.45,2.45,0,0,0,2.55-2.6Z"/><path class="cls-1" d="M223.08,145.81a5.45,5.45,0,0,1,1.17,1.88,6.74,6.74,0,0,1,.42,2.43,6.53,6.53,0,0,1-.43,2.43,5.26,5.26,0,0,1-1.19,1.86,5.19,5.19,0,0,1-1.71,1.18,5.53,5.53,0,0,1-4.25,0,4.86,4.86,0,0,1-1.7-1.23,5.59,5.59,0,0,1-1.13-1.86,7.23,7.23,0,0,1,0-4.8,5.85,5.85,0,0,1,1.18-1.86,5.19,5.19,0,0,1,1.74-1.19,5.45,5.45,0,0,1,4.17,0A5,5,0,0,1,223.08,145.81Zm-1.18,8a5.31,5.31,0,0,0,.65-1.64,9.63,9.63,0,0,0,.2-2,9.48,9.48,0,0,0-.22-2.13,5.64,5.64,0,0,0-.67-1.65,3.12,3.12,0,0,0-1.09-1.05,3,3,0,0,0-1.51-.37,2.87,2.87,0,0,0-1.61.43,3.32,3.32,0,0,0-1.09,1.17,5.41,5.41,0,0,0-.59,1.63,9.6,9.6,0,0,0-.2,2,9.26,9.26,0,0,0,.21,2.06,5.15,5.15,0,0,0,.65,1.63,3.22,3.22,0,0,0,1.08,1.09,3,3,0,0,0,1.55.39,3,3,0,0,0,1.53-.39A3.11,3.11,0,0,0,221.9,153.79Z"/><path class="cls-1" d="M235.41,145.81a5.45,5.45,0,0,1,1.17,1.88,7.16,7.16,0,0,1,0,4.86,5.4,5.4,0,0,1-1.19,1.86,5.19,5.19,0,0,1-1.71,1.18,5.53,5.53,0,0,1-4.25,0,5,5,0,0,1-1.71-1.23,5.57,5.57,0,0,1-1.12-1.86,6.75,6.75,0,0,1-.41-2.35,6.49,6.49,0,0,1,.43-2.45,5.68,5.68,0,0,1,1.18-1.86,5.25,5.25,0,0,1,1.73-1.19,5.47,5.47,0,0,1,4.18,0A5,5,0,0,1,235.41,145.81Zm-1.18,8a5.3,5.3,0,0,0,.64-1.64,9,9,0,0,0,.21-2,9.46,9.46,0,0,0-.23-2.13,5.37,5.37,0,0,0-.66-1.65,3.15,3.15,0,0,0-1.1-1.05,3,3,0,0,0-1.5-.37,2.9,2.9,0,0,0-1.62.43,3.38,3.38,0,0,0-1.08,1.17,5.41,5.41,0,0,0-.6,1.63,9.61,9.61,0,0,0-.19,2,9.26,9.26,0,0,0,.21,2.06,4.93,4.93,0,0,0,.65,1.63A3.11,3.11,0,0,0,230,154.9a3,3,0,0,0,1.56.39,3.06,3.06,0,0,0,1.53-.39A3.27,3.27,0,0,0,234.23,153.79Z"/><path class="cls-1" d="M247.38,147.29h-.6a4.18,4.18,0,0,0-.69-1.34,1.74,1.74,0,0,0-1-.78l-.58,0h-2.65v4.52h1.29a2.66,2.66,0,0,0,.91-.13,1.34,1.34,0,0,0,.56-.37,1.63,1.63,0,0,0,.29-.55,2.85,2.85,0,0,0,.17-.79h.6v4.43h-.6a3.25,3.25,0,0,0-.16-.79,2,2,0,0,0-.3-.65,1.23,1.23,0,0,0-.6-.4,3.15,3.15,0,0,0-.87-.1h-1.29v3.87a1,1,0,0,0,.1.46.8.8,0,0,0,.36.34,3.34,3.34,0,0,0,.52.13,5.51,5.51,0,0,0,.6.09v.56h-4.87v-.56l.63,0a1.81,1.81,0,0,0,.51-.1.65.65,0,0,0,.35-.3,1.07,1.07,0,0,0,.11-.49v-8.12a1.11,1.11,0,0,0-.09-.46.64.64,0,0,0-.37-.33,2.4,2.4,0,0,0-.57-.18,5,5,0,0,0-.57-.1v-.56h8.82Z"/><path class="cls-1" d="M253.54,155.73h-5.07v-.56l.62,0a1.89,1.89,0,0,0,.57-.1.71.71,0,0,0,.38-.28.87.87,0,0,0,.12-.49V146.1a1.09,1.09,0,0,0-.09-.47.66.66,0,0,0-.41-.31,5.65,5.65,0,0,0-.6-.18,4.53,4.53,0,0,0-.59-.1v-.56h5.07V145l-.59.06a5.34,5.34,0,0,0-.59.13.68.68,0,0,0-.41.31,1.09,1.09,0,0,0-.1.48v8.14a1,1,0,0,0,.11.46.79.79,0,0,0,.4.33,4.31,4.31,0,0,0,.54.13,4.63,4.63,0,0,0,.64.09Z"/><path class="cls-1" d="M266.74,145a4.06,4.06,0,0,0-.69.13,2.25,2.25,0,0,0-.65.25,1.12,1.12,0,0,0-.39.76,9.06,9.06,0,0,0-.1,1.42v8.24h-.69l-6.82-9.2v5.8a7,7,0,0,0,.13,1.5,1.38,1.38,0,0,0,.37.74,1.89,1.89,0,0,0,.76.33,5.4,5.4,0,0,0,.75.16v.56H254.8v-.56a3.89,3.89,0,0,0,.72-.16,1.66,1.66,0,0,0,.63-.25,1.11,1.11,0,0,0,.38-.67,7.9,7.9,0,0,0,.11-1.56V147a2.29,2.29,0,0,0-.13-.73,1.49,1.49,0,0,0-.34-.57,2.39,2.39,0,0,0-.78-.44,2.54,2.54,0,0,0-.78-.21v-.56h3.21l6.32,8.58v-5.35a7.19,7.19,0,0,0-.12-1.51,1.23,1.23,0,0,0-.37-.71,2.92,2.92,0,0,0-.72-.29,4.39,4.39,0,0,0-.77-.16v-.56h4.58Z"/><path class="cls-1" d="M278.78,151.24l-.51.08a1.83,1.83,0,0,0-.52.14.75.75,0,0,0-.34.34,1.19,1.19,0,0,0-.1.51v.88c0,.63,0,1.06,0,1.28s0,.4,0,.55a12.48,12.48,0,0,1-2.1.73,8.64,8.64,0,0,1-2.05.25,5.46,5.46,0,0,1-2.08-.4,5.2,5.2,0,0,1-1.75-1.16,5.42,5.42,0,0,1-1.19-1.83,6.2,6.2,0,0,1-.45-2.41,6.37,6.37,0,0,1,.43-2.38,5.53,5.53,0,0,1,1.2-1.91,5.37,5.37,0,0,1,1.79-1.24,5.77,5.77,0,0,1,2.24-.44,5.43,5.43,0,0,1,1.65.23,6.28,6.28,0,0,1,1.25.56l.32-.54h.64l.07,3.93h-.65a11.89,11.89,0,0,0-.41-1.28,4.8,4.8,0,0,0-.64-1.13,2.78,2.78,0,0,0-2.29-1.09,3.23,3.23,0,0,0-1.51.34,3.33,3.33,0,0,0-1.16,1,5.08,5.08,0,0,0-.75,1.64,8.79,8.79,0,0,0-.26,2.2,7.76,7.76,0,0,0,.26,2,5,5,0,0,0,.75,1.64,3.63,3.63,0,0,0,1.23,1.11,3.42,3.42,0,0,0,1.68.4,3.68,3.68,0,0,0,1.27-.21,2.28,2.28,0,0,0,.81-.45,4.65,4.65,0,0,0,.07-.83v-1.34a1.78,1.78,0,0,0-.09-.59.61.61,0,0,0-.37-.37,2.6,2.6,0,0,0-.71-.18l-.7-.08v-.58h4.93Z"/><path class="cls-1" d="M284.75,154.19l-.12,1.68h-4.39v-.29l.27,0a.82.82,0,0,0,.26-.06.31.31,0,0,0,.17-.15.58.58,0,0,0,.05-.25v-4a.61.61,0,0,0,0-.24.36.36,0,0,0-.18-.16l-.26-.1-.27,0v-.28h2.37v.28l-.28,0-.26.06a.3.3,0,0,0-.18.17.49.49,0,0,0-.05.24v3.78a4,4,0,0,0,0,.41.4.4,0,0,0,.12.22.49.49,0,0,0,.28.09,3.16,3.16,0,0,0,.5,0h.31l.3,0,.25-.07a.38.38,0,0,0,.17-.1,3.54,3.54,0,0,0,.38-.56,2.76,2.76,0,0,0,.3-.6Z"/><path class="cls-1" d="M289.78,154.19l-.12,1.68h-4.4v-.29l.28,0a.82.82,0,0,0,.25-.06.31.31,0,0,0,.17-.15.47.47,0,0,0,.05-.25v-4a.61.61,0,0,0,0-.24.36.36,0,0,0-.18-.16l-.26-.1-.27,0v-.28h2.37v.28l-.28,0-.26.06a.3.3,0,0,0-.18.17.49.49,0,0,0-.05.24v3.78a4,4,0,0,0,0,.41.4.4,0,0,0,.12.22.52.52,0,0,0,.28.09,3.16,3.16,0,0,0,.5,0h.31l.3,0a1.49,1.49,0,0,0,.25-.07.5.5,0,0,0,.18-.1,5.76,5.76,0,0,0,.38-.56,3.16,3.16,0,0,0,.29-.6Z"/><path class="cls-1" d="M292.76,156a2.48,2.48,0,0,1-1-.2,2.39,2.39,0,0,1-.81-.57,2.71,2.71,0,0,1-.57-.91,3.3,3.3,0,0,1-.21-1.21,3.45,3.45,0,0,1,.21-1.23,3,3,0,0,1,.57-.94,2.46,2.46,0,0,1,.85-.61,2.66,2.66,0,0,1,1.05-.21,2.48,2.48,0,0,1,.75.1,2.85,2.85,0,0,1,.64.29l.17-.27h.31l0,2h-.33a3.77,3.77,0,0,0-.19-.64A2.41,2.41,0,0,0,294,151a1.49,1.49,0,0,0-.45-.42,1.22,1.22,0,0,0-.6-.16,1.59,1.59,0,0,0-.72.17,1.72,1.72,0,0,0-.57.51,2.6,2.6,0,0,0-.36.82,4.15,4.15,0,0,0-.13,1.1,3.43,3.43,0,0,0,.14,1,2.43,2.43,0,0,0,.39.79,1.88,1.88,0,0,0,.6.53,1.54,1.54,0,0,0,.77.19,1.59,1.59,0,0,0,.59-.1,1.65,1.65,0,0,0,.47-.27,2.17,2.17,0,0,0,.35-.39,2,2,0,0,0,.24-.49l.3.15a2.52,2.52,0,0,1-.9,1.19A2.44,2.44,0,0,1,292.76,156Z"/><rect class="cls-2" x="97.41" y="132.32" width="197.16" height="5.41"/><rect class="cls-3" x="97.41" y="68.72" width="197.16" height="5.41"/><polygon class="cls-4" points="168.89 36.7 168.89 4.68 148.37 4.68 148.37 16.18 136.19 4 59.4 4 115.1 56.77 188.96 56.77 168.89 36.7"/><polygon class="cls-5" points="59.4 4 5.28 56.77 21.51 56.77 67.64 11.8 59.4 4"/><polygon class="cls-6" points="282.5 45.45 282.5 27.39 270.92 27.39 270.92 33.87 264.05 27 220.73 27 252.16 56.77 293.82 56.77 282.5 45.45"/><polygon class="cls-7" points="220.73 27 190.2 56.77 199.36 56.77 225.38 31.4 220.73 27"/></svg>
